<svg width="128" height="128" viewBox="0 0 128 128" fill="none" xmlns="http://www.w3.org/2000/svg">
<path d="M26.9772 124.849C29.8792 125.574 91.1828 125.333 93.3593 124.849C95.5357 124.365 102.911 117.715 104.483 115.176C106.055 112.637 116.454 92.8066 114.761 93.2903C113.068 93.7739 50.5555 105.261 50.5555 105.261L29.8792 107.075C29.8792 107.075 14.5231 108.042 14.0394 109.251C13.5557 110.46 17.6668 117.473 18.6341 118.803C19.6015 120.133 24.0753 124.123 26.9772 124.849Z" fill="#013A61"/>
<path d="M79.575 95.3458C77.7613 95.5876 29.8792 107.075 29.8792 107.075C29.8792 107.075 83.3233 98.2478 83.2024 97.6432C83.0815 97.0386 81.3887 95.104 79.575 95.3458Z" fill="#013A61"/>
<path d="M29.8792 107.075C29.8792 107.075 14.5231 108.042 14.0394 109.251C13.5557 110.46 17.6668 117.473 18.6341 118.803C19.6015 120.133 24.0753 124.123 26.9772 124.849C29.8792 125.574 91.1828 125.333 93.3593 124.849C95.5357 124.365 102.911 117.715 104.483 115.176C106.055 112.637 116.454 92.8066 114.761 93.2903C113.068 93.7739 50.5555 105.261 50.5555 105.261L29.8792 107.075ZM29.8792 107.075C29.8792 107.075 77.7613 95.5876 79.575 95.3458C81.3887 95.104 83.0815 97.0386 83.2024 97.6432C83.3233 98.2478 29.8792 107.075 29.8792 107.075Z" stroke="#013A61" stroke-width="0.725486"/>
<path d="M94.3032 124.859C92.4309 126.072 79.575 125.574 79.575 125.574C85.0669 124.2 92.8915 119.855 99.2958 113.986C108.07 105.946 114.882 95.104 114.882 95.104C114.882 95.7289 110.697 106.545 104.483 115.901C101.344 120.628 96.1754 123.646 94.3032 124.859Z" fill="#002848"/>
<path d="M26.4936 104.052C26.2518 103.689 27.7269 101.561 28.791 101.271C29.855 100.98 53.2157 95.9504 53.4575 96.3132C53.6993 96.6759 53.8202 98.7315 53.4575 98.9733C53.0948 99.2151 26.7354 104.414 26.4936 104.052Z" fill="#013A61"/>
<path d="M61.3169 96.3132C60.8333 96.3132 61.0751 97.7642 61.3169 98.006C61.5588 98.2478 67.8463 97.1596 68.2091 97.0387C68.5718 96.9178 68.5718 96.3132 68.2091 96.0714C67.8463 95.8295 61.8006 96.3132 61.3169 96.3132Z" fill="#013A61"/>
<path d="M26.4936 104.052C26.2518 103.689 27.7269 101.561 28.791 101.271C29.855 100.98 53.2157 95.9504 53.4575 96.3132C53.6993 96.6759 53.8202 98.7315 53.4575 98.9733C53.0948 99.2151 26.7354 104.414 26.4936 104.052Z" stroke="#013A61" stroke-width="0.725486"/>
<path d="M61.3169 96.3132C60.8333 96.3132 61.0751 97.7642 61.3169 98.006C61.5588 98.2478 67.8463 97.1596 68.2091 97.0387C68.5718 96.9178 68.5718 96.3132 68.2091 96.0714C67.8463 95.8295 61.8006 96.3132 61.3169 96.3132Z" stroke="#013A61" stroke-width="0.725486"/>
<circle cx="85" cy="108" r="3.5" fill="#013A61" stroke="#002848"/>
<path d="M58.7777 2.00816C58.7822 1.2736 58.1904 0.674473 57.4558 0.669967C56.7213 0.66546 56.1222 1.25728 56.1176 1.99184L58.7777 2.00816ZM56.8431 100.545L58.1731 100.553L58.7777 2.00816L57.4477 2L56.1176 1.99184L55.5131 100.537L56.8431 100.545Z" fill="#013A61"/>
<path d="M81.5096 87.2446C95.4148 87.3655 103.758 94.0158 103.758 94.0158C103.758 94.0158 92.271 54.8396 82.8397 36.8233C73.4084 18.8071 60.5914 5.02283 60.5914 5.02283C60.5914 5.02283 63.3725 26.0619 61.9215 48.6729C60.4705 71.2839 59.1405 91.7184 59.1405 91.7184C59.1405 91.7184 67.6045 87.1237 81.5096 87.2446Z" fill="#FB7D04" stroke="#FB7D04" stroke-width="0.483658"/>
<circle cx="62.7678" cy="83.9799" r="1.45097" fill="#FEF7ED" stroke="#FEF7ED" stroke-width="0.483658"/>
<circle cx="65.1861" cy="69.2282" r="1.45097" fill="#FEF7ED" stroke="#FEF7ED" stroke-width="0.483658"/>
<circle cx="78.7286" cy="66.3265" r="1.45097" fill="#FEF7ED" stroke="#FEF7ED" stroke-width="0.483658"/>
<circle cx="79.4541" cy="77.9341" r="1.45097" fill="#FEF7ED" stroke="#FEF7ED" stroke-width="0.483658"/>
<circle cx="89.6109" cy="62.9408" r="1.45097" fill="#FEF7ED" stroke="#FEF7ED" stroke-width="0.483658"/>
<circle cx="96.3821" cy="83.0125" r="1.45097" fill="#FEF7ED" stroke="#FEF7ED" stroke-width="0.483658"/>
<circle cx="77.0358" cy="54.4769" r="1.45097" fill="#FEF7ED" stroke="#FEF7ED" stroke-width="0.483658"/>
<circle cx="65.6698" cy="45.771" r="1.45097" fill="#FEF7ED" stroke="#FEF7ED" stroke-width="0.483658"/>
<circle cx="79.9377" cy="39.4836" r="1.45097" fill="#FEF7ED" stroke="#FEF7ED" stroke-width="0.483658"/>
<circle cx="74.8593" cy="29.3266" r="1.45097" fill="#FEF7ED" stroke="#FEF7ED" stroke-width="0.483658"/>
<circle cx="65.9116" cy="30.5357" r="1.45097" fill="#FEF7ED" stroke="#FEF7ED" stroke-width="0.483658"/>
<circle cx="66.1535" cy="18.686" r="1.45097" fill="#FEF7ED" stroke="#FEF7ED" stroke-width="0.483658"/>
<path d="M62.7679 84.1008L65.1861 69.591M62.7679 84.1008L79.8168 78.176M62.7679 84.1008L78.7286 66.0845M65.1861 69.591L66.1535 45.4082M65.1861 69.591L79.8168 78.176M65.1861 69.591L77.2776 54.3558M65.1861 69.591L78.7286 66.0845M66.1535 45.4082V30.7775M66.1535 45.4082L77.2776 54.3558M66.1535 45.4082L79.8168 39.2415M66.1535 45.4082L75.1011 29.4475M66.1535 45.4082L78.7286 66.0845M66.1535 30.7775V19.0488L75.1011 29.4475M66.1535 30.7775L79.8168 39.2415M66.1535 30.7775L75.1011 29.4475M75.1011 29.4475L79.8168 39.2415M79.8168 39.2415L89.7318 63.3035M79.8168 39.2415L77.2776 54.3558M89.7318 63.3035L96.3821 83.1335M89.7318 63.3035L79.8168 78.176M89.7318 63.3035L78.7286 66.0845M89.7318 63.3035L77.2776 54.3558M96.3821 83.1335L79.8168 78.176M96.3821 83.1335L78.7286 66.0845M79.8168 78.176L78.7286 66.0845M78.7286 66.0845L77.2776 54.3558" stroke="#FEF7ED" stroke-width="0.483658"/>
<path d="M54.0621 23.6436V92.202L22.1407 94.1367C22.1407 94.1367 29.8792 84.1008 37.255 68.8655C44.6307 53.6303 54.0621 23.6436 54.0621 23.6436Z" fill="#0098D0"/>
<path d="M54.0621 92.202L54.0767 92.4434C54.2043 92.4357 54.3039 92.3299 54.3039 92.202H54.0621ZM54.0621 23.6436H54.3039L53.8314 23.571L54.0621 23.6436ZM22.1407 94.1367L21.9491 93.989C21.8912 94.0641 21.8826 94.1661 21.927 94.2499C21.9714 94.3337 22.0606 94.3838 22.1553 94.378L22.1407 94.1367ZM37.255 68.8655L37.0373 68.7602L37.0373 68.7602L37.255 68.8655ZM54.0621 92.202H54.3039V23.6436H54.0621H53.8202V92.202H54.0621ZM22.1407 94.1367L22.1553 94.378L54.0767 92.4434L54.0621 92.202L54.0474 91.9606L22.126 93.8953L22.1407 94.1367ZM54.0621 23.6436C53.8314 23.571 53.8313 23.5711 53.8313 23.5713C53.8312 23.5716 53.8311 23.5719 53.8309 23.5723C53.8307 23.5732 53.8302 23.5746 53.8297 23.5764C53.8285 23.58 53.8268 23.5854 53.8245 23.5926C53.82 23.6071 53.8132 23.6286 53.8042 23.6572C53.7861 23.7143 53.7592 23.7993 53.7238 23.9109C53.653 24.134 53.5482 24.4634 53.4121 24.888C53.14 25.7373 52.7429 26.9676 52.2434 28.4917C51.2443 31.54 49.8354 35.7629 48.1961 40.4617C44.9164 49.8625 40.7185 61.1563 37.0373 68.7602L37.255 68.8655L37.4726 68.9709C41.1672 61.3396 45.3729 50.0223 48.6528 40.621C50.2933 35.9187 51.7032 31.6927 52.703 28.6424C53.2029 27.1171 53.6003 25.8858 53.8727 25.0356C54.0089 24.6105 54.1139 24.2807 54.1848 24.0572C54.2203 23.9454 54.2473 23.8602 54.2654 23.8029C54.2744 23.7742 54.2813 23.7526 54.2858 23.738C54.2881 23.7308 54.2898 23.7253 54.291 23.7217C54.2916 23.7198 54.292 23.7184 54.2923 23.7175C54.2924 23.7171 54.2926 23.7167 54.2926 23.7165C54.2927 23.7162 54.2927 23.7161 54.0621 23.6436ZM37.255 68.8655L37.0373 68.7602C33.3546 76.367 29.5813 82.676 26.7289 87.0829C25.3027 89.2862 24.107 91.0138 23.2682 92.1901C22.8487 92.7782 22.5186 93.2285 22.2935 93.5314C22.1809 93.6829 22.0946 93.7976 22.0366 93.8742C22.0076 93.9126 21.9856 93.9414 21.9709 93.9606C21.9636 93.9701 21.9581 93.9773 21.9545 93.9821C21.9526 93.9844 21.9513 93.9862 21.9504 93.9874C21.95 93.9879 21.9496 93.9884 21.9494 93.9886C21.9493 93.9888 21.9492 93.9888 21.9492 93.9889C21.9492 93.989 21.9491 93.989 22.1407 94.1367C22.3322 94.2843 22.3322 94.2843 22.3323 94.2842C22.3324 94.2841 22.3325 94.2839 22.3326 94.2838C22.3329 94.2834 22.3332 94.2829 22.3337 94.2823C22.3347 94.281 22.3362 94.2791 22.3381 94.2766C22.342 94.2716 22.3477 94.2641 22.3552 94.2542C22.3703 94.2345 22.3927 94.2051 22.4222 94.1662C22.4811 94.0884 22.5682 93.9726 22.6817 93.8199C22.9086 93.5145 23.2406 93.0617 23.6619 92.4709C24.5046 91.2893 25.7044 89.5557 27.1349 87.3457C29.9957 82.9259 33.7795 76.5993 37.4726 68.9709L37.255 68.8655Z" fill="#0098D0"/>
<path d="M35.4412 89.7839C28.67 90.8721 22.0197 94.2577 22.0197 94.2577L54.3039 92.3231V54.1141C53.036 70.849 51.3343 79.2768 49.1045 91.2349C49.1045 91.2349 42.2124 88.6957 35.4412 89.7839Z" fill="#006BA6" stroke="#006BA6" stroke-width="0.241829"/>
</svg>
